<?xml version="1.0" encoding="UTF-8" ?>
<!DOCTYPE svg PUBLIC "-//W3C//DTD SVG 1.1//EN" "http://www.w3.org/Graphics/SVG/1.1/DTD/svg11.dtd">
<svg width="220px" height="50px" viewBox="0 0 1632 408" version="1.1" xmlns="http://www.w3.org/2000/svg">
<g id="#ffe516ff">
<path fill="#ffe516" opacity="1.00" d=" M 676.01 117.56 C 701.68 117.61 727.35 117.32 753.01 117.72 C 764.60 118.55 777.77 120.89 785.25 130.73 C 792.52 140.11 791.55 152.54 792.19 163.70 C 791.40 163.78 789.80 163.94 789.01 164.03 C 770.02 163.71 751.00 163.83 732.00 163.96 C 697.92 163.70 663.84 163.96 629.77 163.84 C 629.78 151.81 632.75 139.08 641.30 130.17 C 650.05 120.67 663.51 117.44 676.01 117.56 Z" />
<path fill="#ffe516" opacity="1.00" d=" M 821.84 130.96 C 829.23 121.08 842.37 118.68 853.92 117.73 C 879.29 117.29 904.66 117.65 930.03 117.53 C 941.43 117.59 953.54 118.29 963.57 124.28 C 971.83 129.18 976.27 138.68 976.88 148.03 C 978.03 161.06 977.36 174.18 977.52 187.25 C 962.09 187.24 946.66 187.26 931.23 187.24 C 931.29 179.65 931.10 172.06 931.33 164.48 C 930.02 163.69 928.46 163.86 927.02 163.84 C 902.02 163.95 877.00 163.71 852.00 163.96 C 839.75 163.72 827.49 163.94 815.24 163.85 C 815.52 152.72 814.78 140.35 821.84 130.96 Z" />
<path fill="#ffe516" opacity="1.00" d=" M 1007.56 130.59 C 1014.70 121.35 1026.99 118.95 1037.95 117.80 C 1052.29 117.26 1066.65 117.65 1081.01 117.53 C 1095.71 117.64 1110.42 117.29 1125.12 117.76 C 1134.41 118.66 1144.23 120.23 1151.76 126.19 C 1158.99 131.82 1162.10 141.17 1162.52 150.04 C 1163.55 169.35 1162.47 188.67 1163.09 207.98 C 1162.33 216.97 1163.61 225.98 1162.91 234.98 C 1162.88 247.01 1163.15 259.06 1162.52 271.09 C 1162.09 279.92 1158.95 289.23 1151.63 294.71 C 1143.23 301.13 1132.25 302.52 1122.01 303.17 C 1101.67 303.42 1081.32 303.22 1060.98 303.28 C 1049.32 303.15 1037.46 303.95 1026.04 301.15 C 1018.38 299.26 1010.68 295.44 1006.43 288.52 C 1001.60 281.34 1001.22 272.43 1000.80 264.08 C 1000.65 238.47 1000.77 212.86 1000.74 187.25 C 1016.23 187.34 1031.73 187.07 1047.22 187.39 C 1047.11 210.54 1047.20 233.69 1047.17 256.84 C 1070.33 256.84 1093.49 256.85 1116.65 256.84 C 1116.52 225.83 1116.88 194.80 1116.47 163.80 C 1077.89 163.93 1039.31 163.82 1000.73 163.86 C 1000.97 152.60 1000.30 140.02 1007.56 130.59 Z" />
<path fill="#ffe516" opacity="1.00" d=" M 1186.23 163.85 C 1186.24 148.41 1186.20 132.97 1186.25 117.52 C 1225.16 117.57 1264.06 117.47 1302.97 117.57 C 1314.72 117.53 1327.04 120.95 1335.51 129.47 C 1344.19 137.84 1348.19 150.07 1348.39 161.93 C 1348.52 171.64 1348.56 181.36 1348.52 191.07 C 1348.30 199.78 1348.22 208.97 1344.01 216.86 C 1340.73 223.13 1334.76 227.65 1328.14 229.93 C 1319.85 232.89 1310.94 233.64 1302.19 233.56 C 1302.16 241.32 1302.18 249.08 1302.18 256.84 C 1317.60 256.85 1333.02 256.84 1348.45 256.85 C 1348.44 272.33 1348.47 287.80 1348.43 303.28 C 1332.30 303.26 1316.17 303.32 1300.05 303.25 C 1289.40 303.05 1278.18 301.95 1268.98 296.13 C 1261.77 291.58 1257.69 283.36 1256.67 275.08 C 1255.08 261.29 1256.00 247.40 1255.73 233.56 C 1248.00 233.57 1240.27 233.56 1232.54 233.57 C 1232.51 256.81 1232.58 280.05 1232.50 303.29 C 1217.09 303.28 1201.69 303.27 1186.28 303.30 C 1186.16 264.62 1186.26 225.93 1186.23 187.25 C 1224.88 187.23 1263.53 187.28 1302.18 187.23 C 1302.24 179.68 1302.05 172.12 1302.28 164.57 C 1298.47 163.04 1294.04 164.16 1290.00 163.96 C 1282.00 163.80 1273.99 163.79 1266.00 163.96 C 1239.41 163.72 1212.82 163.94 1186.23 163.85 Z" />
<path fill="#ffe516" opacity="1.00" d=" M 1371.65 117.53 C 1425.71 117.53 1479.77 117.52 1533.84 117.54 C 1533.83 132.98 1533.84 148.42 1533.84 163.86 C 1479.77 163.86 1425.71 163.86 1371.65 163.86 C 1371.64 148.42 1371.64 132.98 1371.65 117.53 Z" />
<path fill="#ffe516" opacity="1.00" d=" M 629.77 187.27 C 659.88 187.22 689.99 187.26 720.09 187.25 C 732.11 187.39 744.15 186.89 756.15 187.67 C 765.70 188.79 776.06 190.75 783.11 197.87 C 789.69 204.38 791.56 214.03 791.75 222.95 C 792.44 234.62 792.05 246.33 792.15 258.02 C 791.58 269.15 792.39 281.65 784.78 290.77 C 776.59 300.52 763.01 302.44 751.03 303.18 C 726.02 303.41 701.00 303.23 675.98 303.27 C 664.94 303.17 653.28 302.32 643.59 296.49 C 636.11 291.99 631.76 283.60 630.71 275.11 C 630.08 269.05 629.65 262.95 629.78 256.85 C 668.42 256.83 707.06 256.86 745.71 256.84 C 745.69 249.08 745.72 241.31 745.69 233.55 C 721.12 233.51 696.54 233.69 671.97 233.46 C 659.57 233.17 645.44 231.07 637.02 220.96 C 629.45 211.50 629.98 198.71 629.77 187.27 Z" />
<path fill="#ffe516" opacity="1.00" d=" M 815.25 187.25 C 830.71 187.25 846.17 187.24 861.63 187.26 C 861.63 210.45 861.63 233.65 861.64 256.84 C 884.83 256.82 908.03 256.89 931.23 256.81 C 931.22 249.06 931.23 241.32 931.22 233.57 C 946.66 233.54 962.09 233.57 977.52 233.56 C 977.33 247.04 978.12 260.59 976.75 274.03 C 976.01 283.02 971.45 291.93 963.52 296.59 C 954.03 302.06 942.72 303.09 931.97 303.27 C 906.99 303.25 882.01 303.38 857.04 303.20 C 844.94 302.70 831.20 300.83 822.87 291.07 C 815.96 283.10 815.52 272.03 815.31 262.01 C 815.18 237.09 815.28 212.17 815.25 187.25 Z" />
<path fill="#ffe516" opacity="1.00" d=" M 1371.65 187.25 C 1410.29 187.26 1448.92 187.23 1487.56 187.26 C 1487.54 202.69 1487.56 218.13 1487.55 233.56 C 1464.32 233.60 1441.08 233.49 1417.85 233.61 C 1417.84 240.09 1418.40 246.57 1417.86 253.04 C 1418.11 254.17 1416.98 257.04 1419.05 256.81 C 1457.31 256.90 1495.57 256.81 1533.83 256.85 C 1533.82 272.33 1533.87 287.81 1533.81 303.28 C 1479.76 303.28 1425.71 303.29 1371.66 303.28 C 1371.63 264.60 1371.65 225.92 1371.65 187.25 Z" />
</g>
<g id="#f4fcffff">
<path fill="#f4fcff" opacity="1.00" d=" M 74.86 117.59 C 128.99 117.46 183.12 117.56 237.25 117.54 C 237.25 132.98 237.25 148.41 237.25 163.85 C 183.11 163.80 128.98 163.99 74.85 163.76 C 74.88 148.37 74.86 132.98 74.86 117.59 Z" />
<path fill="#f4fcff" opacity="1.00" d=" M 260.43 163.85 C 260.44 148.41 260.42 132.97 260.44 117.53 C 275.88 117.54 291.33 117.52 306.77 117.54 C 306.76 132.98 306.77 148.42 306.77 163.86 C 291.32 163.86 275.87 163.87 260.43 163.85 Z" />
<path fill="#f4fcff" opacity="1.00" d=" M 376.34 256.84 C 376.35 210.40 376.32 163.97 376.35 117.53 C 391.80 117.54 407.25 117.52 422.69 117.54 C 422.66 165.35 422.75 213.16 422.65 260.97 C 422.43 271.29 422.28 282.84 415.13 291.08 C 407.00 300.52 393.76 302.38 382.04 303.16 C 360.03 303.43 338.01 303.21 316.00 303.28 C 303.82 303.25 291.18 303.77 279.65 299.19 C 270.81 296.06 264.08 288.17 262.09 279.04 C 260.39 271.13 260.49 262.99 260.43 254.95 C 260.43 232.38 260.43 209.82 260.43 187.26 C 275.87 187.24 291.32 187.25 306.76 187.25 C 306.77 210.44 306.76 233.64 306.77 256.83 C 329.96 256.86 353.15 256.84 376.34 256.84 Z" />
<path fill="#f4fcff" opacity="1.00" d=" M 444.34 163.85 C 444.35 148.41 444.31 132.97 444.36 117.52 C 498.43 117.54 552.51 117.54 606.59 117.53 C 606.62 132.97 606.59 148.41 606.61 163.85 C 587.30 163.87 567.99 163.85 548.69 163.86 C 548.57 210.33 548.72 256.81 548.61 303.29 C 533.18 303.27 517.74 303.29 502.31 303.28 C 502.27 257.04 502.09 210.80 502.29 164.56 C 501.05 163.59 499.43 163.89 497.98 163.84 C 480.10 163.88 462.22 163.85 444.34 163.85 Z" />
<path fill="#f4fcff" opacity="1.00" d=" M 74.82 187.42 C 113.47 187.03 152.15 187.36 190.81 187.25 C 190.82 202.69 190.83 218.13 190.81 233.56 C 167.65 233.55 144.50 233.58 121.34 233.55 C 121.30 256.80 121.36 280.04 121.32 303.28 C 106.00 303.34 90.68 303.17 75.37 303.37 C 74.38 299.69 74.91 295.76 75.04 292.00 C 74.82 283.01 74.71 273.98 75.04 265.00 C 74.74 256.01 74.76 246.98 75.03 238.00 C 74.77 235.33 74.76 232.66 75.04 230.00 C 74.60 215.82 75.04 201.61 74.82 187.42 Z" />
</g>
</svg>
